<svg width="161" height="19" viewBox="0 0 161 19" fill="none" xmlns="http://www.w3.org/2000/svg">
<path d="M6.24 8.568C5.6 8.568 5.088 9.104 4.704 10.176C4.32 11.232 4.128 12.368 4.128 13.584C4.128 15.504 4.72 16.464 5.904 16.464C6.288 16.464 6.696 16.376 7.128 16.2C7.56 16.008 7.904 15.824 8.16 15.648L8.52 15.36L9.072 16.104C8.944 16.28 8.688 16.512 8.304 16.8C7.92 17.088 7.56 17.328 7.224 17.52C6.888 17.712 6.456 17.888 5.928 18.048C5.4 18.208 4.88 18.288 4.368 18.288C3.12 18.288 2.184 17.88 1.56 17.064C0.936 16.248 0.624 15.152 0.624 13.776C0.624 11.872 1.144 10.328 2.184 9.144C3.24 7.96 4.592 7.368 6.24 7.368C7.312 7.368 8.16 7.616 8.784 8.112C9.424 8.592 9.744 9.192 9.744 9.912C9.744 10.616 9.52 11.224 9.072 11.736C8.672 11.736 8.208 11.648 7.68 11.472C7.152 11.296 6.752 11.08 6.48 10.824L6.84 8.712C6.696 8.616 6.496 8.568 6.24 8.568ZM10.9071 18.072H10.4511C10.4511 17.32 10.6751 15.88 11.1231 13.752C11.5871 11.624 11.8191 10.416 11.8191 10.128C11.8191 9.6 11.5951 9.04 11.1471 8.448L10.9311 8.16L10.9551 7.848C11.8191 7.608 13.2031 7.488 15.1071 7.488C15.3151 7.76 15.4271 8.256 15.4431 8.976C16.8351 7.904 18.0111 7.368 18.9711 7.368C19.5471 7.368 20.0031 7.568 20.3391 7.968C20.6911 8.368 20.8671 8.872 20.8671 9.48C20.8671 10.072 20.6831 11.104 20.3151 12.576C19.9471 14.048 19.7631 15.04 19.7631 15.552C19.7631 16.048 19.8271 16.296 19.9551 16.296C20.0511 16.296 20.3871 16.144 20.9631 15.84L21.2511 15.696L21.6831 16.536C21.5391 16.664 21.3471 16.824 21.1071 17.016C20.8671 17.208 20.4191 17.472 19.7631 17.808C19.1231 18.128 18.5471 18.288 18.0351 18.288C16.8671 18.288 16.2831 17.624 16.2831 16.296C16.2831 15.736 16.4591 14.704 16.8111 13.2C17.1791 11.696 17.3631 10.728 17.3631 10.296C17.3631 9.864 17.2271 9.648 16.9551 9.648C16.4911 9.648 15.9231 9.848 15.2511 10.248C15.2031 10.52 15.0431 11.24 14.7711 12.408C14.2111 14.92 13.9311 16.696 13.9311 17.736C13.3711 17.96 12.3631 18.072 10.9071 18.072ZM28.6626 1.248C28.6626 2.464 28.2546 4.848 27.4386 8.4C28.3986 7.712 29.2626 7.368 30.0306 7.368C30.8146 7.368 31.4786 7.696 32.0226 8.352C32.5826 8.992 32.8626 9.976 32.8626 11.304C32.8626 13.528 32.4226 15.248 31.5426 16.464C30.6786 17.68 29.6226 18.288 28.3746 18.288C27.9106 18.288 27.4386 18.232 26.9586 18.12C26.4946 18.008 26.1426 17.888 25.9026 17.76L25.5426 17.592C24.5186 17.944 23.5186 18.12 22.5426 18.12C22.4466 18.04 22.3986 17.656 22.3986 16.968C22.3986 16.264 22.8466 13.96 23.7426 10.056C24.6386 6.136 25.0866 3.456 25.0866 2.016C25.0866 1.76 25.0466 1.432 24.9666 1.032C26.2146 0.599999 27.4066 0.383999 28.5426 0.383999C28.6226 0.607999 28.6626 0.895999 28.6626 1.248ZM28.4466 9.408C28.1426 9.408 27.6866 9.552 27.0786 9.84C26.3426 12.944 25.9426 15.168 25.8786 16.512C26.3586 16.72 26.8146 16.824 27.2466 16.824C27.8546 16.824 28.3586 16.264 28.7586 15.144C29.1746 14.024 29.3826 12.792 29.3826 11.448C29.3826 10.088 29.0706 9.408 28.4466 9.408ZM44.9985 1.248C44.9985 2.464 44.5905 4.848 43.7745 8.4C44.7345 7.712 45.5985 7.368 46.3665 7.368C47.1505 7.368 47.8145 7.696 48.3585 8.352C48.9185 8.992 49.1985 9.976 49.1985 11.304C49.1985 13.528 48.7585 15.248 47.8785 16.464C47.0145 17.68 45.9585 18.288 44.7105 18.288C44.2465 18.288 43.7745 18.232 43.2945 18.12C42.8305 18.008 42.4785 17.888 42.2385 17.76L41.8785 17.592C40.8545 17.944 39.8545 18.12 38.8785 18.12C38.7825 18.04 38.7345 17.656 38.7345 16.968C38.7345 16.264 39.1825 13.96 40.0785 10.056C40.9745 6.136 41.4225 3.456 41.4225 2.016C41.4225 1.76 41.3825 1.432 41.3025 1.032C42.5505 0.599999 43.7425 0.383999 44.8785 0.383999C44.9585 0.607999 44.9985 0.895999 44.9985 1.248ZM44.7825 9.408C44.4785 9.408 44.0225 9.552 43.4145 9.84C42.6785 12.944 42.2785 15.168 42.2145 16.512C42.6945 16.72 43.1505 16.824 43.5825 16.824C44.1905 16.824 44.6945 16.264 45.0945 15.144C45.5105 14.024 45.7185 12.792 45.7185 11.448C45.7185 10.088 45.4065 9.408 44.7825 9.408ZM55.2818 8.856C55.2818 9.528 55.0658 10.688 54.6338 12.336C54.2018 13.968 53.9858 15.04 53.9858 15.552C53.9858 16.048 54.0578 16.296 54.2018 16.296C54.2978 16.296 54.6658 16.144 55.3058 15.84L55.5938 15.696L56.0018 16.536C55.8578 16.664 55.6658 16.824 55.4258 17.016C55.1858 17.208 54.7378 17.472 54.0818 17.808C53.4258 18.128 52.8178 18.288 52.2578 18.288C51.6978 18.288 51.2578 18.12 50.9378 17.784C50.6178 17.432 50.4578 16.968 50.4578 16.392C50.4578 15.8 50.6578 14.76 51.0578 13.272C51.4578 11.768 51.6578 10.792 51.6578 10.344C51.6578 9.672 51.4498 9.04 51.0338 8.448L50.8178 8.16L50.8418 7.848C51.6898 7.608 53.0658 7.488 54.9698 7.488C55.1778 7.728 55.2818 8.184 55.2818 8.856ZM52.5458 4.872C52.2258 4.552 52.0658 4.128 52.0658 3.6C52.0658 3.072 52.2818 2.608 52.7138 2.208C53.1618 1.808 53.6738 1.608 54.2498 1.608C54.8258 1.608 55.2738 1.768 55.5938 2.088C55.9138 2.408 56.0738 2.832 56.0738 3.36C56.0738 3.872 55.8418 4.328 55.3778 4.728C54.9298 5.128 54.4258 5.328 53.8658 5.328C53.3058 5.328 52.8658 5.176 52.5458 4.872ZM58.7008 18.288C58.1568 18.288 57.7008 18.104 57.3328 17.736C56.9808 17.368 56.8048 16.856 56.8048 16.2C56.8048 15.528 57.1968 13.408 57.9808 9.84C58.7808 6.256 59.1808 3.672 59.1808 2.088L59.0368 1.032C60.2848 0.599999 61.4528 0.383999 62.5408 0.383999C62.7008 0.607999 62.7808 0.999999 62.7808 1.56C62.7808 2.84 62.3728 5.32 61.5568 9C60.7568 12.664 60.3568 14.8 60.3568 15.408C60.3568 16 60.4288 16.296 60.5728 16.296L62.2528 15.696L62.6848 16.536C62.1408 16.968 61.4768 17.368 60.6928 17.736C59.9248 18.104 59.2608 18.288 58.7008 18.288ZM65.0758 18.288C64.5318 18.288 64.0758 18.104 63.7078 17.736C63.3558 17.368 63.1798 16.856 63.1798 16.2C63.1798 15.528 63.5718 13.408 64.3558 9.84C65.1558 6.256 65.5558 3.672 65.5558 2.088L65.4118 1.032C66.6598 0.599999 67.8278 0.383999 68.9158 0.383999C69.0758 0.607999 69.1558 0.999999 69.1558 1.56C69.1558 2.84 68.7478 5.32 67.9318 9C67.1318 12.664 66.7318 14.8 66.7318 15.408C66.7318 16 66.8038 16.296 66.9478 16.296L68.6278 15.696L69.0598 16.536C68.5158 16.968 67.8518 17.368 67.0678 17.736C66.2998 18.104 65.6358 18.288 65.0758 18.288ZM74.5708 8.856C74.5708 9.528 74.3548 10.688 73.9228 12.336C73.4908 13.968 73.2748 15.04 73.2748 15.552C73.2748 16.048 73.3468 16.296 73.4908 16.296C73.5868 16.296 73.9548 16.144 74.5948 15.84L74.8828 15.696L75.2908 16.536C75.1468 16.664 74.9548 16.824 74.7148 17.016C74.4748 17.208 74.0268 17.472 73.3708 17.808C72.7148 18.128 72.1068 18.288 71.5468 18.288C70.9868 18.288 70.5468 18.12 70.2268 17.784C69.9068 17.432 69.7468 16.968 69.7468 16.392C69.7468 15.8 69.9468 14.76 70.3468 13.272C70.7468 11.768 70.9468 10.792 70.9468 10.344C70.9468 9.672 70.7388 9.04 70.3228 8.448L70.1068 8.16L70.1308 7.848C70.9788 7.608 72.3548 7.488 74.2588 7.488C74.4668 7.728 74.5708 8.184 74.5708 8.856ZM71.8348 4.872C71.5148 4.552 71.3548 4.128 71.3548 3.6C71.3548 3.072 71.5708 2.608 72.0028 2.208C72.4508 1.808 72.9628 1.608 73.5388 1.608C74.1148 1.608 74.5628 1.768 74.8828 2.088C75.2028 2.408 75.3628 2.832 75.3628 3.36C75.3628 3.872 75.1308 4.328 74.6668 4.728C74.2188 5.128 73.7148 5.328 73.1548 5.328C72.5948 5.328 72.1548 5.176 71.8348 4.872ZM83.2939 8.064C83.3259 8.032 83.4139 7.824 83.5579 7.44C84.3099 7.44 85.3179 7.664 86.5819 8.112C86.1819 9.44 85.8619 10.832 85.6219 12.288C85.3819 13.728 85.2619 14.76 85.2619 15.384C85.2619 15.992 85.3259 16.296 85.4539 16.296C85.5499 16.296 85.9019 16.144 86.5099 15.84L86.7979 15.696L87.2299 16.536C87.0859 16.664 86.8939 16.824 86.6539 17.016C86.4299 17.208 85.9979 17.472 85.3579 17.808C84.7179 18.128 84.1419 18.288 83.6299 18.288C82.6379 18.288 82.0619 17.84 81.9019 16.944C80.8779 17.84 79.9499 18.288 79.1179 18.288C78.3019 18.288 77.6059 17.968 77.0299 17.328C76.4699 16.688 76.1899 15.68 76.1899 14.304C76.1899 12.16 76.6299 10.472 77.5099 9.24C78.3899 7.992 79.4539 7.368 80.7019 7.368C81.5979 7.368 82.4619 7.6 83.2939 8.064ZM80.5579 16.248C80.9419 16.248 81.3739 16.096 81.8539 15.792C81.9659 13.536 82.3419 11.304 82.9819 9.096C82.5019 8.888 82.0939 8.784 81.7579 8.784C81.1819 8.784 80.6859 9.352 80.2699 10.488C79.8699 11.608 79.6699 12.848 79.6699 14.208C79.6699 15.568 79.9659 16.248 80.5579 16.248ZM88.1531 18.072H87.9851C87.9531 17.944 87.9371 17.656 87.9371 17.208C87.9371 16.744 88.1531 15.512 88.5851 13.512C89.0171 11.512 89.2331 10.368 89.2331 10.08C89.2331 9.584 89.0091 9.04 88.5611 8.448L88.3451 8.16L88.3691 7.848C89.2331 7.608 90.6171 7.488 92.5211 7.488C92.7131 7.904 92.8091 8.488 92.8091 9.24C92.9851 8.952 93.3531 8.568 93.9131 8.088C94.4731 7.608 95.0491 7.368 95.6411 7.368C96.5051 7.368 96.9371 8.12 96.9371 9.624C96.8571 9.72 96.7451 9.848 96.6011 10.008C96.4731 10.152 96.2011 10.36 95.7851 10.632C95.3851 10.904 94.9931 11.072 94.6091 11.136C94.5931 11.136 94.4571 10.92 94.2011 10.488C93.9451 10.056 93.7531 9.84 93.6251 9.84C93.2251 9.984 92.8731 10.224 92.5691 10.56C91.8331 13.872 91.4651 16.016 91.4651 16.992C91.4651 17.344 91.4731 17.592 91.4891 17.736C90.9291 17.96 89.8171 18.072 88.1531 18.072ZM107.791 16.536C106.431 17.704 105.231 18.288 104.191 18.288C103.167 18.288 102.575 17.776 102.415 16.752C101.935 17.232 101.399 17.608 100.807 17.88C100.215 18.152 99.6953 18.288 99.2473 18.288C98.4793 18.288 97.8233 17.952 97.2793 17.28C96.7353 16.608 96.4633 15.568 96.4633 14.16C96.4633 12.048 96.9113 10.392 97.8073 9.192C98.7033 7.976 99.7113 7.368 100.831 7.368C101.967 7.368 102.919 7.624 103.687 8.136C104.183 5.544 104.431 3.504 104.431 2.016L104.311 1.008C105.511 0.592 106.687 0.383999 107.839 0.383999C107.967 0.656 108.031 0.967999 108.031 1.32C108.031 2.488 107.679 4.864 106.975 8.448C106.271 12.016 105.919 14.44 105.919 15.72C105.919 16.104 106.007 16.296 106.183 16.296C106.279 16.296 106.583 16.144 107.095 15.84L107.335 15.696L107.791 16.536ZM102.007 8.784C101.447 8.784 100.959 9.336 100.543 10.44C100.143 11.544 99.9433 12.64 99.9433 13.728C99.9433 14.8 100.015 15.488 100.159 15.792C100.319 16.096 100.551 16.248 100.855 16.248C101.383 16.248 101.903 16.032 102.415 15.6C102.463 14.96 102.823 12.832 103.495 9.216C102.951 8.928 102.455 8.784 102.007 8.784ZM116.183 14.856C116.183 15.864 115.735 16.688 114.839 17.328C113.959 17.968 112.951 18.288 111.815 18.288C110.679 18.288 109.775 18.048 109.103 17.568C108.447 17.088 108.119 16.664 108.119 16.296C108.119 16.072 108.399 15.712 108.959 15.216C109.519 14.704 109.991 14.392 110.375 14.28C111.175 14.872 111.831 15.808 112.343 17.088C112.935 17.04 113.231 16.76 113.231 16.248C113.231 15.512 112.583 14.472 111.287 13.128C109.991 11.768 109.343 10.688 109.343 9.888C109.343 9.088 109.703 8.472 110.423 8.04C111.143 7.592 112.007 7.368 113.015 7.368C114.039 7.368 114.807 7.552 115.319 7.92C115.831 8.272 116.087 8.76 116.087 9.384C116.087 9.992 115.599 10.84 114.623 11.928C114.735 12.04 114.879 12.192 115.055 12.384C115.231 12.56 115.463 12.904 115.751 13.416C116.039 13.928 116.183 14.408 116.183 14.856ZM113.879 11.088C114.551 10.512 114.887 9.944 114.887 9.384C114.887 8.824 114.503 8.544 113.735 8.544C113.367 8.544 113.063 8.624 112.823 8.784C112.583 8.928 112.463 9.096 112.463 9.288C112.463 9.64 112.815 10.136 113.519 10.776L113.879 11.088ZM127.623 8.568C126.983 8.568 126.471 9.104 126.087 10.176C125.703 11.232 125.511 12.368 125.511 13.584C125.511 15.504 126.103 16.464 127.287 16.464C127.671 16.464 128.079 16.376 128.511 16.2C128.943 16.008 129.287 15.824 129.543 15.648L129.903 15.36L130.455 16.104C130.327 16.28 130.071 16.512 129.687 16.8C129.303 17.088 128.943 17.328 128.607 17.52C128.271 17.712 127.839 17.888 127.311 18.048C126.783 18.208 126.263 18.288 125.751 18.288C124.503 18.288 123.567 17.88 122.943 17.064C122.319 16.248 122.007 15.152 122.007 13.776C122.007 11.872 122.527 10.328 123.567 9.144C124.623 7.96 125.975 7.368 127.623 7.368C128.695 7.368 129.543 7.616 130.167 8.112C130.807 8.592 131.127 9.192 131.127 9.912C131.127 10.616 130.903 11.224 130.455 11.736C130.055 11.736 129.591 11.648 129.063 11.472C128.535 11.296 128.135 11.08 127.863 10.824L128.223 8.712C128.079 8.616 127.879 8.568 127.623 8.568ZM133.49 18.288C132.946 18.288 132.49 18.104 132.122 17.736C131.77 17.368 131.594 16.856 131.594 16.2C131.594 15.528 131.986 13.408 132.77 9.84C133.57 6.256 133.97 3.672 133.97 2.088L133.826 1.032C135.074 0.599999 136.242 0.383999 137.33 0.383999C137.49 0.607999 137.57 0.999999 137.57 1.56C137.57 2.84 137.162 5.32 136.346 9C135.546 12.664 135.146 14.8 135.146 15.408C135.146 16 135.218 16.296 135.362 16.296L137.042 15.696L137.474 16.536C136.93 16.968 136.266 17.368 135.482 17.736C134.714 18.104 134.05 18.288 133.49 18.288ZM138.209 16.2C138.209 15.512 138.417 14.344 138.833 12.696C139.249 11.032 139.457 10.016 139.457 9.648C139.457 9.264 139.169 8.76 138.593 8.136L138.617 7.824C139.705 7.6 141.137 7.488 142.913 7.488C142.993 7.696 143.033 8.072 143.033 8.616C143.033 9.16 142.809 10.32 142.361 12.096C141.913 13.872 141.689 14.976 141.689 15.408C141.689 15.84 141.849 16.056 142.169 16.056C142.633 16.056 143.169 15.888 143.777 15.552C143.841 15.168 144.001 14.432 144.257 13.344C144.833 10.784 145.121 8.952 145.121 7.848C145.681 7.624 146.689 7.512 148.145 7.512H148.601C148.601 8.264 148.377 9.736 147.929 11.928C147.481 14.104 147.257 15.384 147.257 15.768C147.257 16.136 147.337 16.32 147.497 16.32C147.593 16.32 148.049 16.128 148.865 15.744L149.321 16.512C147.897 17.696 146.649 18.288 145.577 18.288C145.065 18.288 144.625 18.144 144.257 17.856C143.905 17.568 143.705 17.192 143.657 16.728C142.361 17.784 141.185 18.312 140.129 18.312C139.569 18.312 139.105 18.128 138.737 17.76C138.385 17.392 138.209 16.872 138.209 16.2ZM156.209 1.248C156.209 2.464 155.801 4.848 154.985 8.4C155.945 7.712 156.809 7.368 157.577 7.368C158.361 7.368 159.025 7.696 159.569 8.352C160.129 8.992 160.409 9.976 160.409 11.304C160.409 13.528 159.969 15.248 159.089 16.464C158.225 17.68 157.169 18.288 155.921 18.288C155.457 18.288 154.985 18.232 154.505 18.12C154.041 18.008 153.689 17.888 153.449 17.76L153.089 17.592C152.065 17.944 151.065 18.12 150.089 18.12C149.993 18.04 149.945 17.656 149.945 16.968C149.945 16.264 150.393 13.96 151.289 10.056C152.185 6.136 152.633 3.456 152.633 2.016C152.633 1.76 152.593 1.432 152.513 1.032C153.761 0.599999 154.953 0.383999 156.089 0.383999C156.169 0.607999 156.209 0.895999 156.209 1.248ZM155.993 9.408C155.689 9.408 155.233 9.552 154.625 9.84C153.889 12.944 153.489 15.168 153.425 16.512C153.905 16.72 154.361 16.824 154.793 16.824C155.401 16.824 155.905 16.264 156.305 15.144C156.721 14.024 156.929 12.792 156.929 11.448C156.929 10.088 156.617 9.408 155.993 9.408Z" fill="black"/>
</svg>
